# xmcd CD database file
#
# Track frame offsets:
#	150
#	16275
#	30612
#	43287
#	55812
#	74337
#	90089
#	101402
#	115277
#	130379
#	144779
#	158231
#	171406
#	189333
#	203870
#	218060
#
# Disc length: 3050 seconds
#
# Revision: 0
# Processed by: cddbd v1.5.2PL0 Copyright (c) Steve Scherf et al.
# Submitted via: CDex 1.51
#
DISCID=da0be810
DTITLE=Don Williams - 16 Original World Hits
DYEAR=1989
DGENRE=Country
TTITLE0=Don Williams - If I Needed You
TTITLE1=Don Williams - Listen To The Radio
TTITLE2=Don Williams - You're My Best Friend
TTITLE3=Don Williams - Some Broken Hearts Never Mend
TTITLE4=Don Williams - I Believe In You
TTITLE5=Don Williams - 'Till The Rivers All Run Dry
TTITLE6=Don Williams - It Must Be Love
TTITLE7=Don Williams - I'm Just A Country Boy
TTITLE8=Don Williams - It's Good To See You
TTITLE9=Don Williams - Amanda
TTITLE10=Don Williams - Say It Again
TTITLE11=Don Williams - Lay Down Beside Me
TTITLE12=Don Williams - Only Love
TTITLE13=Don Williams - Tulsa Time
TTITLE14=Don Williams - Come Early Morning
TTITLE15=Don Williams - Turn Out The Lights And Love Me Tonight
EXTD=YEAR: 1989
EXTT0=
EXTT1=
EXTT2=
EXTT3=
EXTT4=
EXTT5=
EXTT6=
EXTT7=
EXTT8=
EXTT9=
EXTT10=
EXTT11=
EXTT12=
EXTT13=
EXTT14=
EXTT15=
PLAYORDER=
